# xmcd
#
# Track frame offsets: 
#        150
#        16046
#        32844
#        59832
#
# Disc length: 1574 seconds
#
# Revision: 3
# Processed by: cddbd v1.5.2PL0 Copyright (c) Steve Scherf et al.
# Submitted via: ExactAudioCopy v1.0b3
#
DISCID=2d062404
DTITLE=Ray Horton - Because I Love You
DYEAR=1999
DGENRE=Soul
TTITLE0=Because I Love You (Radio Edit)
TTITLE1=Because I Love You (T.E.T Club Mix)
TTITLE2=Because I Love You (Radio Instrumental)
TTITLE3=Data Track
EXTD=
EXTT0=
EXTT1=
EXTT2=
EXTT3=
PLAYORDER=
